<?xml version="1.0" encoding="utf-8"?>
<!-- Generator: Adobe Illustrator 25.2.0, SVG Export Plug-In . SVG Version: 6.00 Build 0)  -->
<svg version="1.1" id="Layer_1"
    xmlns="http://www.w3.org/2000/svg"
    xmlns:xlink="http://www.w3.org/1999/xlink" x="0px" y="0px" viewBox="0 0 62.5 86.6" style="enable-background:new 0 0 62.5 86.6;" xml:space="preserve">
    <style>
    path {
        fill: #111827;
    }

    @media (prefers-color-scheme: dark) {
        path {
        fill: #F9FAFB;
        }
    }
    </style>
    <path d="M16.7,8h38.2v50.3c0,1.8-0.2,3.5-0.6,5.3c-0.3,1.1-0.6,2.2-1.1,3.3c-1.1,2.6-2.7,4.8-4.7,6.6c-2,1.8-4.5,3.2-7.4,4.2
	c-1.9,0.6-3.8,1-5.7,1.2c-1.3,0.1-2.6,0.2-3.9,0.2c-2.2,0-4.4-0.2-6.5-0.6c-2.5-0.5-4.7-1.3-6.6-2.3c-1.2-0.7-2.4-1.5-3.4-2.4
	c-3.2-2.9-5.5-6.7-6.7-10.9c-0.3-1-0.6-2.1-0.7-3.1l14.2-2.9c0.2,1.1,0.5,2.3,0.9,3.4c0.6,1.5,1.3,2.8,2.2,3.9c1,1.3,2.4,2.1,4,2.5
	c0.8,0.2,1.7,0.3,2.7,0.3c0.8,0,1.7-0.1,2.5-0.3c1.3-0.4,2.5-1.1,3.4-2.1c0.6-0.7,1.1-1.6,1.4-2.5c0.5-1.4,0.7-3.1,0.7-5.1V20.3h-23
	V8z"/>
</svg>
